    <svg
      width="80"
      height="80"
      viewBox="0 0 224 150"
      fill="white"
      xmlns="http://www.w3.org/2000/svg"
    >
      <path d="M223.528 145.424C223.41 151.181 217.71 154.217 212.639 151.891C196.403 146.922 180.246 142.388 163.774 139.43C114.595 130.479 62.8599 137.577 17.6117 158.673C7.70511 163.365 -3.1057 153.231 0.786195 143.019C8.92379 121.371 15.6068 99.1312 20.8746 76.4974C26.1031 53.8637 29.8771 30.875 32.1572 7.64973C32.5896 2.9968 36.6781 -0.433759 41.3169 0.0394213C44.3046 0.315443 46.7813 2.16873 48.0393 4.69236C51.4201 10.962 55.2334 16.9556 59.4791 22.6338C68.285 34.4238 81.4152 46.6082 106.654 63.0512C115.774 68.966 121.867 72.2388 121.199 75.5511C120.295 79.9674 107.833 81.3081 101.504 81.1504C75.7149 80.5195 55.7444 53.1145 46.8206 38.8796C44.1081 68.2562 39.0368 97.5145 31.6461 126.221C40.7665 123.185 50.0442 120.582 59.4791 118.65C86.2899 112.972 113.887 111.71 141.052 114.943C150.054 116.047 159.017 117.546 167.862 119.557C173.995 120.937 180.049 122.514 185.985 124.407C179.774 115.614 171.322 101.379 165.975 82.1756C160.904 63.8004 160.629 47.9095 161.297 37.3812C151.155 44.6761 141.169 52.2075 130.162 58.28C125.759 60.7642 118.486 63.5244 115.224 57.3731C113.494 53.7848 115.145 50.4331 116.599 47.5546C118.919 43.0199 122.142 38.367 123.4 33.9901C123.44 33.7141 123.518 33.438 123.558 33.162C123.086 33.2409 122.457 33.2803 121.671 33.3198C119.902 33.3198 118.447 33.2409 116.914 32.61C114.791 31.7425 113.337 29.1794 113.455 26.9713C113.651 23.0675 115.145 20.7805 116.796 17.7837C119.784 12.8547 123.243 8.51723 126.742 4.21918C128.118 2.56305 130.791 4.41634 129.612 6.26963C126.113 12.0267 122.536 17.6654 120.531 23.8956C120.334 24.6054 120.177 25.3151 120.138 25.8672C121.16 25.7489 122.025 25.5517 123.243 25.4334C129.14 24.6842 132.953 29.6132 132.167 35.2125C131.853 37.815 131.263 39.9443 130.555 41.9159C131.263 41.3244 131.97 40.6935 132.717 40.102C144.904 29.3766 156.501 17.9414 168.059 6.46678C175.607 -0.433759 187.558 6.9794 184.884 16.7585C182.015 27.4839 180.482 38.7613 180.403 49.9599C180.324 61.1979 181.779 72.3965 184.767 83.1614C187.794 93.9262 192.354 104.297 198.408 113.8C204.423 123.303 211.853 131.978 220.383 139.549C222.427 140.968 223.568 143.255 223.568 145.542L223.528 145.424ZM81.6904 101.182L81.5331 101.063L74.8501 96.2921C74.8501 96.2921 74.7321 96.2133 74.6535 96.1738C74.9287 95.819 75.1646 95.4246 75.4398 95.0698C77.2874 92.1913 78.742 89.0761 79.5282 85.7639C79.9213 84.1078 79.4103 82.3333 78.0737 81.1109C76.1081 79.376 73.1203 79.5337 71.3906 81.4658L71.2727 81.5841L65.8083 87.7355C65.8083 87.7355 65.4938 88.0903 65.2973 88.2481C64.511 87.4594 63.7248 86.6708 62.9385 85.8822C61.0909 83.95 59.3218 81.8996 57.4348 79.7703L57.2776 79.6125C56.0982 78.3113 54.2899 77.7198 52.5208 78.2324C50.0049 78.9422 48.5503 81.5447 49.2186 84.0683C50.1228 87.3411 51.656 90.4168 53.5036 93.2559C54.3292 94.5177 55.2334 95.7007 56.1769 96.8442C55.5086 97.3962 54.8009 97.9483 54.0933 98.5003C51.9705 100.117 49.7297 101.655 47.4496 103.311L47.253 103.429C45.8378 104.454 45.0516 106.189 45.3267 108.043C45.7592 110.645 48.1572 112.38 50.7518 111.947C54.0933 111.394 57.3169 110.251 60.3439 108.674C62.2702 107.688 64.1179 106.505 65.8476 105.204C66.7518 105.756 67.656 106.268 68.5995 106.742C71.6265 108.279 74.8894 109.383 78.2702 109.778C79.9213 109.975 81.6904 109.305 82.7125 107.806C84.2457 105.677 83.7346 102.68 81.6117 101.182H81.6904ZM133.936 105.125C141.523 110.172 153.12 107.175 156.423 99.2101C159.528 91.7181 154.182 82.5305 146.673 79.652C141.287 77.6015 133.857 78.3902 129.808 83.5163C124.737 89.9042 126.978 100.511 133.936 105.164V105.125Z" />
    </svg>
